External Loads File
version=1
nRows=54
nColumns=13
Range=5.000000e-03-10 seconds
endheader
time 	forceRightX 	forceRightY 	forceRightZ 	pointRightX 	pointRightY 	pointRightZ 	forceLeftX 	forceLeftY 	forceLeftZ 	pointLeftX 	pointLeftY 	pointLeftZ 		
0.005000 -32.581164 255.332715 -0.000000 0.373386 0.378039 -0.102343 30.854859 300.771888 -0.000000 0.059761 0.278174 -0.340160
0.010000 -31.406491 256.048371 -0.000000 0.373415 0.377974 -0.102347 31.396552 300.669980 -0.000000 0.059739 0.278242 -0.340167
0.015000 -30.334044 256.731695 -0.000000 0.373432 0.377915 -0.102354 31.869316 300.584289 -0.000000 0.059716 0.278315 -0.340169
0.020000 -29.485391 257.358664 -0.000000 0.373458 0.377887 -0.102361 32.291728 300.560816 -0.000000 0.059707 0.278357 -0.340178
0.025000 -29.042530 257.902428 -0.000000 0.373344 0.378196 -0.102327 32.561071 300.656177 -0.000000 0.059816 0.278524 -0.340171
0.030000 -28.577359 258.409602 -0.000000 0.373318 0.378136 -0.102156 33.144088 300.820064 -0.000000 0.059629 0.278448 -0.340261
0.035000 -28.241467 258.861414 -0.000000 0.373290 0.378156 -0.102125 33.681430 301.032856 -0.000000 0.059616 0.278463 -0.340271
0.040000 -27.969162 259.262617 -0.000000 0.373260 0.378172 -0.102115 34.026968 301.227887 -0.000000 0.059616 0.278449 -0.340281
0.045000 -27.735423 259.614105 -0.000000 0.373227 0.378213 -0.102088 34.087211 301.359621 -0.000000 0.059629 0.278419 -0.340287
0.050000 -27.503654 259.917764 -0.000000 0.373192 0.378238 -0.102081 33.934269 301.418708 -0.000000 0.059641 0.278365 -0.340275
0.055000 -27.302935 260.166865 -0.000000 0.373151 0.378287 -0.102064 33.648476 301.438667 -0.000000 0.059651 0.278295 -0.340289
0.060000 -27.104551 260.358760 -0.000000 0.373131 0.378363 -0.102115 33.367160 301.455309 -0.000000 0.059680 0.278239 -0.340280
0.065000 -26.919474 260.488343 -0.000000 0.373077 0.378429 -0.102105 33.139776 301.491929 -0.000000 0.059712 0.278149 -0.340280
0.070000 -26.727005 260.563904 -0.000000 0.373036 0.378521 -0.102098 33.008679 301.538412 -0.000000 0.059743 0.278074 -0.340290
0.075000 -26.535371 260.598950 -0.000000 0.372998 0.378612 -0.102103 32.923845 301.563999 -0.000000 0.059754 0.277993 -0.340304
0.080000 -26.337059 260.603499 -0.000000 0.372962 0.378661 -0.102102 32.813547 301.525718 -0.000000 0.059784 0.277911 -0.340296
0.085000 -26.204417 260.566140 -0.000000 0.372949 0.378758 -0.102107 32.553997 301.405467 -0.000000 0.059807 0.277839 -0.340302
0.090000 -26.123193 260.473002 -0.000000 0.372940 0.378838 -0.102105 32.233734 301.212180 -0.000000 0.059835 0.277778 -0.340306
0.095000 -26.135597 260.300183 -0.000000 0.372936 0.378930 -0.102108 31.963250 300.993020 -0.000000 0.059857 0.277725 -0.340322
0.100000 -26.240672 260.033081 -0.000000 0.372947 0.379018 -0.102125 31.874446 300.785926 -0.000000 0.059863 0.277673 -0.340319
0.105000 -26.438680 259.672066 -0.000000 0.372964 0.379097 -0.102126 31.969001 300.594160 -0.000000 0.059879 0.277614 -0.340319
0.110000 -26.672634 259.239658 -0.000000 0.372977 0.379147 -0.102145 32.193511 300.381620 -0.000000 0.059883 0.277568 -0.340320
0.115000 -26.971014 258.755549 -0.000000 0.373006 0.379234 -0.102167 32.373639 300.123644 -0.000000 0.059882 0.277516 -0.340308
0.120000 -27.262043 258.247501 -0.000000 0.373017 0.379304 -0.102139 32.521810 299.811217 -0.000000 0.059850 0.277464 -0.340282
0.125000 -27.595321 257.728195 -0.000000 0.372985 0.379407 -0.102110 32.586036 299.474708 -0.000000 0.059861 0.277395 -0.340274
0.130000 -27.884582 257.220103 -0.000000 0.373006 0.379517 -0.102120 32.694578 299.131729 -0.000000 0.059864 0.277332 -0.340269
0.135000 -28.149260 256.726791 -0.000000 0.373053 0.379606 -0.102150 32.845193 298.807367 -0.000000 0.059885 0.277232 -0.340295
0.140000 -28.396851 256.253233 -0.000000 0.373057 0.379719 -0.102156 33.026490 298.519362 -0.000000 0.059908 0.277137 -0.340282
0.145000 -28.591915 255.822117 -0.000000 0.373061 0.379846 -0.102174 33.210150 298.273532 -0.000000 0.059946 0.277037 -0.340288
0.150000 -28.686285 255.474109 -0.000000 0.373040 0.380022 -0.102175 33.300748 298.066989 -0.000000 0.059974 0.276960 -0.340293
0.155000 -28.632962 255.256709 -0.000000 0.373016 0.380129 -0.102174 33.197269 297.892229 -0.000000 0.059992 0.276786 -0.340299
0.160000 -28.390197 255.204688 -0.000000 0.372996 0.380237 -0.102170 32.912282 297.747213 -0.000000 0.060022 0.276650 -0.340294
0.165000 -28.024730 255.315265 -0.000000 0.372981 0.380348 -0.102174 32.499954 297.660203 -0.000000 0.060064 0.276515 -0.340284
0.170000 -27.606742 255.561031 -0.000000 0.372943 0.380475 -0.102169 32.082109 297.663046 -0.000000 0.060111 0.276369 -0.340282
0.175000 -27.167197 255.900592 -0.000000 0.372900 0.380592 -0.102169 31.749421 297.750946 -0.000000 0.060146 0.276199 -0.340283
0.180000 -26.764077 256.276914 -0.000000 0.372863 0.380729 -0.102170 31.438322 297.876564 -0.000000 0.060192 0.276028 -0.340283
0.185000 -26.413605 256.632035 -0.000000 0.372816 0.380874 -0.102175 31.086088 297.965692 -0.000000 0.060272 0.275913 -0.340305
0.190000 -26.195406 256.907636 -0.000000 0.372768 0.381006 -0.102165 30.600533 297.973335 -0.000000 0.060313 0.275777 -0.340287
0.195000 -26.131969 257.070026 -0.000000 0.372697 0.381142 -0.102150 30.022708 297.899760 -0.000000 0.060358 0.275671 -0.340294
0.200000 -26.199178 257.113605 -0.000000 0.372656 0.381258 -0.102158 29.466279 297.785475 -0.000000 0.060398 0.275571 -0.340299
0.205000 -26.359653 257.050841 -0.000000 0.372644 0.381361 -0.102185 29.029909 297.680670 -0.000000 0.060439 0.275476 -0.340294
0.210000 -26.513123 256.906044 -0.000000 0.372672 0.381428 -0.102196 28.850254 297.610883 -0.000000 0.060461 0.275414 -0.340296
0.215000 -26.687155 256.689757 -0.000000 0.372681 0.381495 -0.102206 28.887878 297.590010 -0.000000 0.060482 0.275350 -0.340300
0.220000 -26.811415 256.422428 -0.000000 0.372704 0.381549 -0.102204 29.177205 297.595765 -0.000000 0.060487 0.275308 -0.340299
0.225000 -26.843339 256.123625 -0.000000 0.372729 0.381569 -0.102198 29.666458 297.586877 -0.000000 0.060482 0.275298 -0.340299
0.230000 -26.825914 255.805340 -0.000000 0.372767 0.381585 -0.102205 30.164920 297.522196 -0.000000 0.060483 0.275280 -0.340285
0.235000 -26.729556 255.482753 -0.000000 0.372804 0.381582 -0.102218 30.595915 297.365202 -0.000000 0.060467 0.275292 -0.340286
0.240000 -26.624424 255.152022 -0.000000 0.372859 0.381571 -0.102213 30.883295 297.124529 -0.000000 0.060465 0.275297 -0.340281
0.245000 -26.548861 254.808791 -0.000000 0.372893 0.381571 -0.102215 31.102755 296.839411 -0.000000 0.060441 0.275313 -0.340282
0.250000 -26.485908 254.457736 -0.000000 0.372922 0.381556 -0.102217 31.387570 296.549123 -0.000000 0.060448 0.275361 -0.340277
0.255000 -26.467277 254.105291 -0.000000 0.372959 0.381548 -0.102220 31.689989 296.270583 -0.000000 0.060427 0.275375 -0.340270
0.260000 -26.442913 253.775293 -0.000000 0.372973 0.381517 -0.102220 31.942456 295.980549 -0.000000 0.060431 0.275382 -0.340276
0.265000 -26.407552 253.493361 -0.000000 0.372986 0.381519 -0.102222 32.025039 295.666987 -0.000000 0.060437 0.275398 -0.340281
0.270000 -26.320357 253.286935 -0.000000 0.372997 0.381502 -0.102227 31.964752 295.348627 -0.000000 0.060441 0.275411 -0.340278
